<svg width="535" height="535" viewBox="0 0 535 535" fill="none" xmlns="http://www.w3.org/2000/svg">
<path fill-rule="evenodd" clip-rule="evenodd" d="M285.19 534.747V328.232L215.812 328.081C214.954 325.897 214.812 250.158 215.764 247.284C224.038 246.033 280.561 248.445 285.375 246.722C285.877 223.733 284.095 185.421 287.128 164.924C290.735 140.561 302.025 120.561 314.36 108.472C329.57 93.5618 350.511 85.1026 372.102 82.4608C389.8 80.2939 433.194 82.0406 451.208 84.6535L451.209 156.626C426.52 157.799 388.847 150.852 375.488 168.257C371.953 172.86 368.014 182.926 369.019 190.46L368.894 247.109L448.545 247.353L448.074 248.833L438.001 327.725C437.613 327.955 437.739 328.003 436.92 328.176L368.894 328.229V534.745C411.582 534.745 454.27 534.745 496.956 534.745C507.338 534.745 514.03 535.297 522.757 528.743C528.015 524.796 533.73 516.425 534.14 507.874C534.625 497.782 534.134 486.312 534.134 476.066V59.0334C534.134 39.2021 538.391 17.9929 522.496 6.61606C513.095 -0.11255 507.329 0.800102 496.507 0.800102H31.5449C25.2269 0.798498 22.234 1.10967 17.8022 3.18198C10.4801 6.60964 5.2352 11.6701 2.16202 19.3467C-0.903147 27.0024 0.189148 40.628 0.189148 49.6246V498.46C0.189148 507.596 -0.146079 516.327 6.79585 524.106C9.42474 527.052 11.9847 529.426 15.7107 531.317C19.334 533.157 23.0857 534.78 28.3996 534.755C113.958 534.354 199.619 534.743 285.19 534.743V534.747Z" fill="#353D47"/>
<path fill-rule="evenodd" clip-rule="evenodd" d="M285.383 246.706C284.597 247.803 286.555 247.229 283.779 247.607L215.923 247.559V327.768L285.609 327.916L285.612 534.73H368.442L368.444 327.98L438.011 327.709L448.084 248.817L448.185 247.564L368.633 247.375C367.781 242.852 368.505 190.776 369.029 190.444C368.024 182.912 371.964 172.845 375.498 168.24C388.859 150.836 426.53 157.782 451.219 156.61L451.218 84.6372C433.204 82.0243 389.81 80.276 372.112 82.4446C350.521 85.0879 329.58 93.5456 314.37 108.456C302.035 120.545 290.745 140.546 287.137 164.907C284.104 185.404 285.885 223.716 285.384 246.706H285.383Z" fill="white"/>
</svg>
