<?xml version="1.0" encoding="UTF-8"?>
<!DOCTYPE svg PUBLIC "-//W3C//DTD SVG 1.1//EN" "http://www.w3.org/Graphics/SVG/1.1/DTD/svg11.dtd">
<!-- Creator: CorelDRAW 2018 (64-Bit) -->
<svg xmlns="http://www.w3.org/2000/svg" xml:space="preserve" width="3.33333in" height="3.33333in" version="1.1" style="shape-rendering:geometricPrecision; text-rendering:geometricPrecision; image-rendering:optimizeQuality; fill-rule:evenodd; clip-rule:evenodd"
viewBox="0 0 3333.33 3333.33"
 xmlns:xlink="http://www.w3.org/1999/xlink">
 <defs>
  <style type="text/css">
   <![CDATA[
    .fil0 {fill:#3C5899}
    .fil2 {fill:#8C9DC2}
    .fil1 {fill:white}
   ]]>
  </style>
 </defs>
 <g id="Layer_x0020_1">
  <metadata id="CorelCorpID_0Corel-Layer"/>
  <g id="_2148118779248">
   <path class="fil0" d="M1778.03 3331.22l0 -1287.53 -432.54 -0.94c-5.35,-13.62 -6.24,-485.82 -0.3,-503.74 51.58,-7.8 403.98,7.24 433.99,-3.5 3.13,-143.33 -7.98,-382.19 10.93,-509.98 22.49,-151.89 92.88,-276.58 169.78,-351.95 94.83,-92.96 225.39,-145.7 360,-162.17 110.34,-13.51 380.88,-2.62 493.19,13.67l0.01 448.72c-153.93,7.31 -388.8,-36 -472.09,72.51 -22.04,28.7 -46.6,91.46 -40.33,138.43l-0.78 353.18 496.59 1.52 -2.94 9.23 -62.8 491.86c-2.42,1.43 -1.63,1.73 -6.74,2.81l-424.11 0.33 0 1287.54c266.14,0 532.28,0 798.41,0 64.73,0 106.45,3.44 160.86,-37.42 32.78,-24.61 68.41,-76.8 70.97,-130.11 3.02,-62.92 -0.04,-134.43 -0.04,-198.31l0 -2600.02c0,-123.64 26.54,-255.87 -72.56,-326.8 -58.61,-41.95 -94.56,-36.26 -162.03,-36.26l-2898.84 0c-39.39,-0.01 -58.05,1.93 -85.68,14.85 -45.65,21.37 -78.35,52.92 -97.51,100.78 -19.11,47.73 -12.3,132.68 -12.3,188.77l0 2798.3c0,56.96 -2.09,111.39 41.19,159.89 16.39,18.37 32.35,33.17 55.58,44.96 22.59,11.47 45.98,21.59 79.11,21.43 533.42,-2.5 1067.48,-0.07 1600.98,-0.07z"/>
   <path class="fil1" d="M1779.18 1535.52c-4.9,6.84 7.31,3.26 -10,5.62l-423.05 -0.3 0 500.07 434.46 0.92 0.02 1289.4 516.41 0 0.01 -1289 433.72 -1.69 62.8 -491.86 0.63 -7.81 -495.97 -1.18c-5.31,-28.2 -0.8,-352.87 2.47,-354.94 -6.27,-46.96 18.3,-109.72 40.33,-138.43 83.3,-108.51 318.16,-65.2 472.09,-72.51l-0.01 -448.72c-112.31,-16.29 -382.85,-27.19 -493.19,-13.67 -134.61,16.48 -265.17,69.21 -360,162.17 -76.9,75.37 -147.29,200.07 -169.78,351.95 -18.91,127.79 -7.81,366.65 -10.93,509.98z"/>
   <path class="fil2" d="M1778.03 3331.22l2.58 0 -0.02 -1289.4 -434.46 -0.92 0 -500.07 423.05 0.3c17.31,-2.36 5.1,1.22 10,-5.62 -30.01,10.73 -382.41,-4.3 -433.99,3.5 -5.94,17.93 -5.05,490.12 0.3,503.74l432.54 0.94 0 1287.53z"/>
   <path class="fil2" d="M2297.02 3331.22l2.87 0 0 -1287.54 424.11 -0.33c5.11,-1.08 4.32,-1.38 6.74,-2.81l-433.72 1.69 -0.01 1289z"/>
   <path class="fil2" d="M2793.54 1548.67l2.94 -9.23 -496.59 -1.52 0.78 -353.18c-3.26,2.07 -7.78,326.73 -2.47,354.94l495.97 1.18 -0.63 7.81z"/>
  </g>
 </g>
</svg>
