<?xml version="1.0" encoding="UTF-8"?>
<!DOCTYPE svg PUBLIC "-//W3C//DTD SVG 1.1//EN" "http://www.w3.org/Graphics/SVG/1.1/DTD/svg11.dtd">
<!-- Creator: CorelDRAW 2018 (64-Bit) -->
<svg xmlns="http://www.w3.org/2000/svg" xml:space="preserve" width="3.33333in" height="3.33333in" version="1.1" style="shape-rendering:geometricPrecision; text-rendering:geometricPrecision; image-rendering:optimizeQuality; fill-rule:evenodd; clip-rule:evenodd"
viewBox="0 0 3333.33 3333.33"
 xmlns:xlink="http://www.w3.org/1999/xlink">
 <defs>
  <style type="text/css">
   <![CDATA[
    .fil0 {fill:#353D47}
   ]]>
  </style>
 </defs>
 <g id="Layer_x0020_1">
  <metadata id="CorelCorpID_0Corel-Layer"/>
  <path class="fil0" d="M654.58 0l2024.17 0c360.02,0 654.58,294.56 654.58,654.58l0 2024.18c0,360.02 -294.56,654.58 -654.58,654.58l-2024.17 0c-360.02,0 -654.58,-294.56 -654.58,-654.58l0 -2024.18c0,-360.02 294.56,-654.58 654.58,-654.58zm546.05 2132.72c119.26,119.25 284.04,193.03 466.05,193.03 182.02,0 346.8,-73.78 466.04,-193.03 119.26,-119.26 193.03,-284.04 193.03,-466.05 0,-182.02 -73.77,-346.8 -193.03,-466.05 -119.24,-119.25 -284.03,-193.03 -466.04,-193.03 -182.01,0 -346.79,73.78 -466.05,193.03 -119.25,119.25 -193.03,284.03 -193.03,466.05 0,182.01 73.78,346.79 193.03,466.05zm-753.64 753.63c124.14,124.14 295.26,201.2 483.36,201.2l1472.63 0c188.11,0 359.23,-77.06 483.37,-201.2 124.13,-124.14 201.2,-295.26 201.2,-483.37l0 -1472.63c0,-188.1 -77.06,-359.23 -201.2,-483.37 -124.14,-124.14 -295.26,-201.2 -483.37,-201.2l-1472.63 0c-188.1,0 -359.22,77.06 -483.35,201.2 -124.14,124.14 -201.21,295.26 -201.21,483.37l0 1472.63c0,188.1 77.06,359.23 201.2,483.37zm1219.69 -264.59c-263.7,0 -502.5,-106.92 -675.33,-279.76 -172.84,-172.84 -279.76,-411.62 -279.76,-675.33 0,-263.72 106.92,-502.5 279.76,-675.33 172.84,-172.84 411.62,-279.76 675.33,-279.76 263.72,0 502.5,106.92 675.33,279.76 172.84,172.83 279.76,411.61 279.76,675.33 0,263.71 -106.92,502.5 -279.76,675.33 -172.83,172.84 -411.61,279.76 -675.33,279.76zm953.29 -1763.61c-107.26,0 -194.2,-86.95 -194.2,-194.2 0,-107.25 86.95,-194.2 194.2,-194.2 107.25,0 194.2,86.95 194.2,194.2 0,107.26 -86.95,194.2 -194.2,194.2z"/>
 </g>
</svg>
