<?xml version="1.0" encoding="UTF-8"?>
<!DOCTYPE svg PUBLIC "-//W3C//DTD SVG 1.1//EN" "http://www.w3.org/Graphics/SVG/1.1/DTD/svg11.dtd">
<!-- Creator: CorelDRAW 2018 (64-Bit) -->
<svg xmlns="http://www.w3.org/2000/svg" xml:space="preserve" width="3.33333in" height="3.33333in" version="1.1" style="shape-rendering:geometricPrecision; text-rendering:geometricPrecision; image-rendering:optimizeQuality; fill-rule:evenodd; clip-rule:evenodd"
viewBox="0 0 3333.33 3333.33"
 xmlns:xlink="http://www.w3.org/1999/xlink">
 <defs>
  <style type="text/css">
   <![CDATA[
    .fil0 {fill:#353D47}
    .fil1 {fill:#353D47}
   ]]>
  </style>
 </defs>
 <g id="Layer_x0020_1">
  <metadata id="CorelCorpID_0Corel-Layer"/>
  <path class="fil0" d="M1.19 1756.16l388.37 -551.63c16.93,-25.63 37.63,-57.26 57.67,-79.99 165.38,-2.94 106.86,30.91 263.78,-182.19 45.48,-61.76 89.73,-121.16 135.4,-183.44 47.23,-64.43 89.43,-121.14 136.37,-183.2l141.39 -187.07c64.37,-1.87 172.57,-21.02 209.15,26.69 20.76,27.06 22.62,44.38 44.54,71.81 58.37,73.06 93.17,131.2 144.41,205.56l97.33 145.11c153.85,0.91 125.86,-25.33 208.59,62.81 36.26,38.64 90.76,113.5 128.54,142.59 45.77,-48.98 167.24,-218.48 221.62,-290.86 19.78,-26.32 50.15,-75.44 74.06,-95.69 27.78,24.2 34.54,39.45 60.67,70.19l188.03 224.42c89.59,102.76 164.64,198.13 253.02,299.53 20.62,23.66 32.35,56.87 73.58,61.67 50.16,5.84 85.62,-16.47 117.7,19.49 70.83,79.35 341.97,432.46 380.15,452.56 30.47,-253.87 -32.86,-522.88 -113.81,-734.08 -84.98,-221.71 -211.87,-385.25 -333.23,-523.19 -278.69,-316.75 -754.4,-519.06 -1194.11,-522.83 -352.42,-3.02 -712.63,108.78 -982.47,306.11 -236.61,173.02 -457.4,415.19 -571.96,712.8 -92.43,240.09 -138.07,439.7 -128.77,732.83z"/>
  <path class="fil1" d="M88.22 2173.01c135.46,-30.56 225.15,-40.73 369.04,-8.97 98.92,21.83 239.72,88.1 326.04,94.03 63.41,4.35 496.24,-136.1 716.92,0.53 -109.68,26.07 -192.61,61.09 -319.21,73.28 -313,30.15 -408.89,-60.83 -717.3,13.25 -141.11,33.89 -206.74,-0.73 -330.32,-35.1 45.54,109 343.52,118.55 430.55,118.14 170.14,-0.81 337.63,-20.17 499.85,-50.11 195.1,-36 294.24,15.43 457.98,66.85 179.7,56.44 297.65,53.41 490.43,57.89 -138.18,69.21 -214.33,152.15 -411.72,97.11 -75.34,-21 -138.33,-47.21 -219.24,-55.13 -106.81,-10.46 -163.53,16.67 -258,25.93 -178.02,17.46 -285.78,-93.23 -442.46,-102.56 -153.24,-9.12 -310.48,98.14 -380.08,169.92 110.94,-19.96 125.67,-55.91 320.83,-41.63 238.74,17.46 476.73,155.63 622.36,94.41 138.38,-58.16 192.28,-31.22 345.39,-37.41 340.26,-13.76 334.14,-35.85 710.64,-0.31 356.2,33.64 347.7,62.58 691.57,-7.72 -96.46,-26.16 -160.78,55.87 -530.12,-105.74 -38.09,-16.66 -130.73,-46.12 -156.48,-62.66 460.39,-73.7 525.68,108.57 764.28,-24.52 35.13,-19.59 57.09,-21.22 72.74,-55.3 -91.93,0.44 -114.06,1.17 -203.75,-14.6 -120.04,-21.09 -277.64,-76.02 -381.85,-68.2 -66,4.96 -111.87,36.3 -170.34,54.87 -154.33,49.02 -417.2,64.44 -576.87,-25.19 -24.7,-13.85 -44.16,-25.68 -67.72,-41.2 -25.48,-16.78 -47.18,-26.33 -72.56,-41.59 30.55,-3.9 57.5,-9.61 86.76,-15.86 51.53,-11.02 61.04,-7.24 89.17,-27.04 -186.99,-6.43 -302.52,-42.96 -455.82,-107.59 -211.61,-89.21 -254.64,-48.06 -452.62,14.61 -215.03,68.06 -268.53,50.1 -443.7,-36.7 -72.79,-36.07 -132.9,-52.43 -222.06,-22.89 -57.22,18.96 -153.51,72.84 -182.31,107.18z"/>
  <path class="fil0" d="M494.63 1209.86l-336.05 487.9c-76.23,105.13 -29.26,85.95 156.37,86.04l606.91 1.26c26.81,-5.81 167.97,-233.65 212.25,-285.09l145.65 -0.09 -0.25 -756.65 -347.69 375.3 207.15 -605.33c-5.44,5.05 -6.8,5.78 -12.78,12.52l-485.34 658.28c-20.31,27.64 -22.63,26.14 -60.73,26.78 -27.54,0.47 -57.71,-0.54 -85.5,-0.92z"/>
  <path class="fil1" d="M486.33 2844.82c94.4,53.21 370.27,93.84 497.59,97.17 295.31,7.73 242.3,-76.92 533.65,-17.27 -74.66,17.09 -118.84,18.71 -191.13,42.28 -73.59,23.99 -107.15,53.89 -166.14,74.67 -176.47,62.15 -303.24,0.99 -417.13,-5.19 39.56,34.6 137.84,62.57 198.5,76.15 271.03,60.69 251.92,-84.66 480.7,-45.64 373.1,63.61 277.73,128.56 693.65,5.46 72.63,-21.49 154.41,-39.67 232.12,-46.35 86.98,-7.48 195.51,6.6 265.35,-1.29 -497.34,-206.9 -585.63,108.3 -887.45,-53.43 -1.82,-0.98 -3.78,-2.06 -5.52,-3.09 -10.66,-6.33 -9.27,-5.37 -15.97,-11.65 115.93,-7.13 338.12,-51.9 445.06,-98.96 129.8,-57.11 237.37,58.59 484.18,39.65 90.2,-6.92 201.68,-43.35 255.21,-106.23 -294.74,23.07 -527.9,-102.13 -638.03,-51.37 -42.4,19.55 -59.36,49.37 -108.33,70.82 -117.71,51.58 -369,6.47 -485.39,-27.08 -101.22,-29.18 -194.31,-74.09 -307.89,-42.8 -140.55,38.73 -284.48,148.22 -411.58,116.26 -53.08,-13.35 -82.19,-46.44 -129.77,-57.17 -73.2,-16.49 -108,41 -321.68,45.06z"/>
  <path class="fil1" d="M17.24 1899.09c48.24,87.18 249.9,122.87 369.67,106.48 140.55,-19.24 255.15,-91.71 408.48,-70.45 141.26,19.58 266.72,67.85 414.35,71.39 254.95,6.11 442.02,-53.48 692.37,-34.61 73.75,5.56 140.63,22.15 210.87,27.39 185.74,13.86 261.2,-66.09 419.52,-62.84 148.04,3.02 259.91,60.5 399.15,87.66 140.9,27.49 326.22,20.48 364.69,-99.94 -205.87,95.28 -505.02,-94.94 -818.17,-110.54 -292.88,-14.59 -982.57,231.11 -1304.83,107.88 -123.57,-47.25 -184.67,-167 -351.43,-113.45 -138.87,44.59 -203.98,124.15 -390.36,100.86 -70.31,-8.78 -136.43,-34.29 -207.13,-43.11 -101,-12.6 -130.17,11.87 -207.18,33.29z"/>
  <path class="fil0" d="M1522.54 1783.53l411.6 2.36 274.85 -372.47c33.11,-43.19 47.09,-45.59 46.41,-119.52 -1.01,-110.91 7.22,-423.66 -3.22,-489.48 -24.39,21.48 -69.03,87.9 -91.04,117.99l-638.6 861.11z"/>
  <path class="fil1" d="M1709.28 2126.66c50.17,66.48 269.31,88.83 371.93,88.91 148.41,0.12 266.81,-16.88 393.3,-68.46 115.57,-47.14 251.95,22.91 358.81,61.04 160.8,57.37 204.78,-100.78 375.26,24.97 -4.82,-37.56 -72.48,-114.65 -98.77,-131.68 -145.99,-94.56 -288.72,10.33 -396.74,-1.26 -74.67,-8.01 -71.37,-60.24 -188.57,-52.98 -143.57,8.89 -241.16,77.8 -412.59,65.28 -132.48,-9.68 -296.93,-76.31 -402.63,14.18z"/>
  <path class="fil1" d="M1082.91 3223.74c43.37,35.56 262.76,75.59 309.25,83.11 321.39,51.98 657.16,12.65 952.86,-121.27 30.98,-14.03 28.19,-17.06 36.38,-26.72 -112.74,1.39 -211.18,35.9 -313.11,58.99 -116.23,26.32 -222.67,-14.56 -334.82,-26 -170.33,-17.37 -170.15,12.89 -305.46,47.48 -113.46,29.01 -232.54,-5.48 -345.1,-15.59z"/>
 </g>
</svg>
