<svg width="371" height="371" viewBox="0 0 371 371" fill="#FFFFFF" xmlns="http://www.w3.org/2000/svg">
<path fill-rule="evenodd" clip-rule="evenodd" d="M0.129741 195.465L43.3554 134.068C45.2397 131.215 47.5436 127.695 49.774 125.165C68.1809 124.838 61.6676 128.605 79.1328 104.887C84.1947 98.0135 89.1198 91.4022 94.2028 84.4705C99.4595 77.2994 104.156 70.9876 109.381 64.0803L125.118 43.2594C132.282 43.0513 144.325 40.9199 148.396 46.23C150.707 49.2418 150.914 51.1695 153.353 54.2224C159.85 62.354 163.723 68.825 169.426 77.1013L180.259 93.2521C197.383 93.3533 194.267 90.4328 203.475 100.243C207.511 104.543 213.577 112.875 217.782 116.113C222.876 110.662 236.395 91.7962 242.448 83.7403C244.649 80.8109 248.03 75.3439 250.691 73.09C253.783 75.7835 254.535 77.4808 257.443 80.9022L278.371 105.88C288.343 117.317 296.696 127.932 306.532 139.218C308.827 141.851 310.133 145.548 314.722 146.082C320.305 146.732 324.251 144.249 327.822 148.251C335.705 157.083 365.883 196.384 370.133 198.621C373.524 170.365 366.475 140.424 357.465 116.918C348.007 92.2414 333.884 74.0394 320.377 58.6867C289.359 23.4324 236.412 0.915253 187.472 0.495652C148.248 0.159525 108.157 12.6029 78.1233 34.5657C51.7886 53.8229 27.2146 80.7764 14.4641 113.9C4.17661 140.622 -0.903124 162.839 0.131967 195.465H0.129741Z" fill="white"/>
<path fill-rule="evenodd" clip-rule="evenodd" d="M9.81616 241.857C24.8929 238.455 34.8754 237.323 50.8904 240.858C61.9002 243.288 77.5712 250.664 87.1786 251.324C94.2362 251.808 142.41 236.176 166.972 251.383C154.765 254.284 145.534 258.182 131.444 259.539C96.6069 262.895 85.9343 252.769 51.6082 261.014C35.9027 264.786 28.5981 260.932 14.8436 257.107C19.9122 269.239 53.0774 270.302 62.7639 270.256C81.7005 270.166 100.342 268.011 118.397 264.679C140.112 260.672 151.146 266.396 169.37 272.119C189.371 278.401 202.499 278.064 223.955 278.562C208.576 286.265 200.1 295.497 178.131 289.371C169.746 287.033 162.735 284.116 153.729 283.235C141.841 282.071 135.529 285.09 125.014 286.121C105.2 288.064 93.2067 275.744 75.7682 274.706C58.7125 273.691 41.2117 285.629 33.4652 293.618C45.8129 291.396 47.4523 287.395 69.1736 288.985C95.7454 290.928 122.234 306.306 138.442 299.492C153.844 293.019 159.843 296.018 176.884 295.329C214.755 293.797 214.074 291.339 255.979 295.294C295.624 299.038 294.678 302.259 332.95 294.435C322.214 291.523 315.056 300.653 273.948 282.666C269.709 280.812 259.398 277.533 256.532 275.692C307.773 267.489 315.04 287.776 341.596 272.963C345.506 270.783 347.95 270.601 349.692 266.808C339.46 266.857 336.997 266.938 327.015 265.183C313.654 262.836 296.113 256.722 284.515 257.592C277.169 258.144 272.064 261.633 265.556 263.699C248.379 269.155 219.122 270.872 201.35 260.896C198.601 259.354 196.435 258.038 193.813 256.31C190.977 254.443 188.562 253.38 185.737 251.681C189.137 251.247 192.137 250.612 195.394 249.916C201.129 248.689 202.187 249.11 205.318 246.906C184.506 246.191 171.648 242.125 154.585 234.932C131.033 225.003 126.244 229.583 104.209 236.558C80.2758 244.133 74.3213 242.134 54.8248 232.473C46.7233 228.458 40.033 226.638 30.1095 229.925C23.7409 232.036 13.0238 238.032 9.81839 241.854L9.81616 241.857Z" fill="white"/>
<path fill-rule="evenodd" clip-rule="evenodd" d="M55.0465 134.656L17.6441 188.959C9.15971 200.66 14.3875 198.525 35.0481 198.535L102.597 198.676C105.581 198.029 121.292 172.67 126.221 166.945L142.432 166.935L142.404 82.7197L103.706 124.491L126.762 57.1173C126.156 57.6794 126.005 57.7606 125.339 58.5108L71.3208 131.777C69.0603 134.854 68.8021 134.687 64.5616 134.758C61.4964 134.81 58.1384 134.698 55.0454 134.656H55.0465Z" fill="white"/>
<path fill-rule="evenodd" clip-rule="evenodd" d="M54.1283 316.632C64.635 322.555 95.3394 327.077 109.51 327.447C142.378 328.308 136.478 318.886 168.905 325.525C160.596 327.427 155.679 327.608 147.633 330.231C139.442 332.901 135.707 336.229 129.141 338.542C109.5 345.459 95.3906 338.652 82.7146 337.964C87.1177 341.815 98.0562 344.928 104.808 346.44C134.973 353.194 132.846 337.017 158.31 341.36C199.836 348.44 189.221 355.669 235.513 341.967C243.597 339.576 252.699 337.552 261.348 336.809C271.029 335.976 283.108 337.543 290.881 336.665C235.527 313.637 225.701 348.719 192.108 330.718C191.906 330.609 191.687 330.489 191.494 330.374C190.307 329.67 190.462 329.777 189.716 329.078C202.619 328.284 227.349 323.301 239.252 318.064C253.698 311.707 265.671 324.585 293.141 322.477C303.18 321.706 315.588 317.652 321.546 310.653C288.741 313.221 262.79 299.286 250.533 304.936C245.814 307.112 243.926 310.431 238.476 312.818C225.375 318.559 197.406 313.538 184.452 309.804C173.186 306.556 162.825 301.558 150.184 305.04C134.54 309.351 118.521 321.537 104.375 317.98C98.4669 316.494 95.227 312.811 89.9313 311.617C81.7842 309.782 77.9109 316.18 54.1283 316.632V316.632Z" fill="white"/>
<path fill-rule="evenodd" clip-rule="evenodd" d="M1.91565 211.383C7.28477 221.086 29.7296 225.058 43.06 223.234C58.7032 221.093 71.4582 213.027 88.5238 215.393C104.246 217.572 118.21 222.945 134.641 223.339C163.017 224.019 183.838 217.386 211.702 219.487C219.91 220.105 227.354 221.952 235.172 222.535C255.845 224.078 264.243 215.179 281.864 215.541C298.341 215.877 310.792 222.275 326.29 225.298C341.972 228.357 362.598 227.577 366.88 214.174C343.967 224.779 310.671 203.607 275.817 201.871C243.22 200.247 166.457 227.594 130.59 213.878C116.836 208.619 110.036 195.291 91.4755 201.251C76.0193 206.214 68.7725 215.069 48.0284 212.477C40.2029 211.5 32.8437 208.66 24.9748 207.679C13.7335 206.276 10.4869 209 1.91565 211.384V211.383Z" fill="white"/>
<path fill-rule="evenodd" clip-rule="evenodd" d="M169.457 198.509L215.268 198.772L245.859 157.316C249.544 152.509 251.1 152.242 251.024 144.014C250.912 131.669 251.828 96.8602 250.666 89.5344C247.951 91.9252 242.983 99.3177 240.533 102.667L169.457 198.508V198.509Z" fill="white"/>
<path fill-rule="evenodd" clip-rule="evenodd" d="M190.238 236.711C195.822 244.11 220.212 246.597 231.634 246.606C248.152 246.62 261.33 244.727 275.408 238.987C288.271 233.74 303.45 241.536 315.344 245.78C333.241 252.166 338.136 234.564 357.11 248.56C356.574 244.379 349.043 235.799 346.117 233.904C329.868 223.379 313.982 235.053 301.96 233.763C293.649 232.872 294.016 227.059 280.972 227.867C264.993 228.856 254.131 236.526 235.051 235.132C220.306 234.055 202.002 226.639 190.238 236.711V236.711Z" fill="white"/>
<path fill-rule="evenodd" clip-rule="evenodd" d="M120.525 358.81C125.352 362.768 149.77 367.224 154.945 368.061C190.715 373.846 228.087 369.469 260.998 354.563C264.446 353.002 264.136 352.665 265.047 351.589C252.499 351.744 241.543 355.585 230.198 358.155C217.262 361.084 205.415 356.534 192.933 355.261C173.975 353.328 173.995 356.696 158.935 360.546C146.307 363.774 133.053 359.936 120.525 358.81V358.81Z" fill="white"/>
</svg>
