<?xml version="1.0" encoding="UTF-8"?>
<!DOCTYPE svg PUBLIC "-//W3C//DTD SVG 1.1//EN" "http://www.w3.org/Graphics/SVG/1.1/DTD/svg11.dtd">
<!-- Creator: CorelDRAW 2018 (64-Bit) -->
<svg xmlns="http://www.w3.org/2000/svg" xml:space="preserve" width="5.36666in" height="3.33333in" version="1.1" style="shape-rendering:geometricPrecision; text-rendering:geometricPrecision; image-rendering:optimizeQuality; fill-rule:evenodd; clip-rule:evenodd"
viewBox="0 0 5366.66 3333.33"
 xmlns:xlink="http://www.w3.org/1999/xlink">
 <defs>
  <style type="text/css">
   <![CDATA[
    .fil0 {fill:#353D47}
    .fil1 {fill:#353D47}
    .fil4 {fill:#3A4654}
    .fil2 {fill:#3B4753}
    .fil3 {fill:#3B4755}
    .fil5 {fill:#89929B}
    .fil6 {fill:#CCD4DD}
    .fil7 {fill:#ECF1F5}
   ]]>
  </style>
 </defs>
 <g id="Layer_x0020_1">
  <metadata id="CorelCorpID_0Corel-Layer"/>
  <g id="_2354198677280">
   <path class="fil0" d="M1596.66 1142.99l253.39 -359.92c11.04,-16.72 24.55,-37.36 37.63,-52.19 107.91,-1.92 69.72,20.16 172.11,-118.87 29.67,-40.3 58.55,-79.06 88.34,-119.69 30.82,-42.04 58.35,-79.04 88.98,-119.54l92.25 -122.06c42,-1.22 112.59,-13.72 136.46,17.41 13.54,17.66 14.76,28.96 29.06,46.85 38.09,47.67 60.79,85.6 94.22,134.12l63.5 94.68c100.38,0.59 82.12,-16.53 136.09,40.98 23.66,25.21 59.22,74.06 83.87,93.04 29.86,-31.96 109.12,-142.56 144.6,-189.78 12.91,-17.17 32.72,-49.22 48.32,-62.43 18.13,15.79 22.54,25.74 39.59,45.79l122.69 146.43c58.46,67.05 107.42,129.28 165.08,195.43 13.46,15.44 21.11,37.11 48.01,40.24 32.72,3.81 55.86,-10.74 76.8,12.72 46.21,51.78 223.12,282.16 248.03,295.28 19.88,-165.64 -21.44,-341.16 -74.26,-478.96 -55.44,-144.66 -138.23,-251.37 -217.42,-341.36 -181.83,-206.67 -492.22,-338.67 -779.12,-341.13 -229.94,-1.97 -464.96,70.98 -641.03,199.73 -154.38,112.89 -298.44,270.89 -373.19,465.07 -60.31,156.65 -90.09,286.89 -84.02,478.15z"/>
   <path class="fil1" d="M1653.45 1414.97c88.38,-19.94 146.9,-26.57 240.78,-5.85 64.54,14.24 156.41,57.48 212.73,61.35 41.37,2.84 323.78,-88.8 467.77,0.35 -71.56,17.01 -125.67,39.86 -208.27,47.81 -204.22,19.67 -266.79,-39.69 -468.02,8.65 -92.07,22.11 -134.89,-0.48 -215.52,-22.9 29.71,71.12 224.13,77.35 280.92,77.08 111.01,-0.53 220.29,-13.16 326.13,-32.69 127.3,-23.49 191.98,10.06 298.82,43.62 117.25,36.83 194.21,34.85 319.99,37.77 -90.16,45.16 -139.84,99.28 -268.64,63.36 -49.15,-13.7 -90.26,-30.8 -143.04,-35.97 -69.7,-6.83 -106.7,10.88 -168.34,16.92 -116.16,11.39 -186.46,-60.83 -288.69,-66.91 -99.98,-5.95 -202.58,64.03 -247.99,110.87 72.39,-13.03 82,-36.48 209.33,-27.17 155.77,11.39 311.06,101.54 406.07,61.6 90.29,-37.94 125.46,-20.37 225.35,-24.41 222.01,-8.97 218.01,-23.39 463.67,-0.2 232.41,21.94 226.87,40.83 451.23,-5.04 -62.94,-17.07 -104.9,36.45 -345.89,-68.99 -24.85,-10.87 -85.3,-30.09 -102.09,-40.88 300.39,-48.09 342.99,70.84 498.67,-16 22.92,-12.78 37.25,-13.85 47.46,-36.08 -59.98,0.29 -74.42,0.76 -132.94,-9.52 -78.32,-13.76 -181.15,-49.6 -249.14,-44.5 -43.06,3.24 -72.99,23.69 -111.14,35.8 -100.69,31.98 -272.21,42.04 -376.39,-16.43 -16.11,-9.04 -28.81,-16.75 -44.19,-26.88 -16.62,-10.95 -30.78,-17.18 -47.35,-27.14 19.93,-2.54 37.52,-6.27 56.61,-10.35 33.62,-7.19 39.82,-4.73 58.18,-17.64 -122,-4.19 -197.39,-28.03 -297.41,-70.2 -138.07,-58.2 -166.14,-31.36 -295.32,9.54 -140.3,44.4 -175.2,32.69 -289.5,-23.95 -47.49,-23.54 -86.71,-34.2 -144.89,-14.93 -37.33,12.37 -100.16,47.53 -118.95,69.93z"/>
   <path class="fil0" d="M1918.61 786.55l-219.26 318.34c-49.73,68.6 -19.09,56.08 102.03,56.14l395.98 0.82c17.49,-3.8 109.6,-152.45 138.49,-186.01l95.03 -0.06 -0.16 -493.69 -226.85 244.87 135.16 -394.95c-3.55,3.3 -4.44,3.77 -8.34,8.17l-316.67 429.51c-13.25,18.04 -14.76,17.06 -39.62,17.47 -17.97,0.31 -37.66,-0.35 -55.79,-0.6z"/>
   <path class="fil1" d="M1913.2 1853.31c61.59,34.72 241.58,61.23 324.66,63.4 192.68,5.04 158.09,-50.19 348.19,-11.27 -48.71,11.15 -77.54,12.21 -124.71,27.59 -48.01,15.65 -69.91,35.17 -108.4,48.72 -115.14,40.55 -197.86,0.65 -272.16,-3.39 25.81,22.57 89.94,40.82 129.51,49.68 176.84,39.6 164.37,-55.24 313.64,-29.78 243.44,41.51 181.21,83.88 452.58,3.56 47.39,-14.02 100.75,-25.88 151.45,-30.24 56.75,-4.88 127.56,4.31 173.13,-0.84 -324.5,-135 -382.1,70.66 -579.03,-34.86 -1.19,-0.64 -2.47,-1.34 -3.6,-2.02 -6.95,-4.13 -6.05,-3.5 -10.42,-7.6 75.64,-4.65 220.61,-33.86 290.39,-64.57 84.69,-37.26 154.88,38.23 315.91,25.87 58.86,-4.52 131.59,-28.29 166.52,-69.31 -192.31,15.06 -344.44,-66.64 -416.3,-33.52 -27.66,12.76 -38.73,32.21 -70.68,46.2 -76.8,33.65 -240.76,4.22 -316.7,-17.67 -66.04,-19.04 -126.78,-48.34 -200.89,-27.93 -91.7,25.27 -185.61,96.71 -268.54,75.86 -34.64,-8.71 -53.63,-30.3 -84.67,-37.3 -47.76,-10.76 -70.46,26.75 -209.88,29.4z"/>
   <path class="fil1" d="M1607.14 1236.25c31.48,56.88 163.05,80.17 241.2,69.48 91.7,-12.56 166.48,-59.83 266.52,-45.97 92.17,12.78 174.03,44.27 270.35,46.58 166.35,3.98 288.41,-34.89 451.74,-22.59 48.12,3.63 91.76,14.45 137.58,17.87 121.19,9.04 170.42,-43.12 273.73,-41 96.59,1.97 169.58,39.47 260.43,57.2 91.93,17.93 212.85,13.36 237.94,-65.21 -134.32,62.17 -329.51,-61.95 -533.83,-72.13 -191.09,-9.52 -641.1,150.8 -851.36,70.39 -80.62,-30.83 -120.49,-108.96 -229.3,-74.02 -90.61,29.1 -133.09,81.01 -254.7,65.81 -45.88,-5.73 -89.02,-22.37 -135.15,-28.13 -65.9,-8.22 -84.93,7.74 -135.18,21.72z"/>
   <path class="fil0" d="M2589.3 1160.85l268.56 1.54 179.33 -243.02c21.6,-28.19 30.72,-29.75 30.28,-77.98 -0.66,-72.37 4.71,-276.43 -2.1,-319.37 -15.91,14.02 -45.04,57.35 -59.4,76.98l-416.67 561.85z"/>
   <path class="fil1" d="M2711.14 1384.73c32.73,43.38 175.71,57.96 242.67,58.01 96.84,0.08 174.09,-11.01 256.61,-44.67 75.41,-30.76 164.39,14.95 234.11,39.83 104.92,37.43 133.61,-65.75 244.85,16.29 -3.15,-24.5 -47.3,-74.81 -64.44,-85.92 -95.25,-61.7 -188.39,6.74 -258.86,-0.82 -48.72,-5.22 -46.57,-39.3 -123.04,-34.56 -93.68,5.8 -157.35,50.76 -269.2,42.59 -86.44,-6.31 -193.73,-49.79 -262.7,9.25z"/>
   <path class="fil1" d="M2302.45 2100.54c28.3,23.2 171.44,49.32 201.78,54.22 209.7,33.91 428.78,8.26 621.71,-79.12 20.22,-9.16 18.39,-11.13 23.74,-17.44 -73.56,0.91 -137.79,23.42 -204.3,38.49 -75.83,17.17 -145.29,-9.5 -218.46,-16.96 -111.14,-11.33 -111.01,8.41 -199.3,30.98 -74.03,18.93 -151.72,-3.58 -225.17,-10.17z"/>
  </g>
  <path class="fil2" d="M192.01 2437.08l0.37 -46.96 -191.97 4 1.5 44.9c25.58,14.83 33.58,-0.66 45.64,27.76l126.34 379.39 99.21 -2.09 116.86 -328.08c30.29,-83.88 12.86,-58.79 64.25,-79.68l0.07 -45.96 -173.15 3.43 1.29 46.61 42.37 13.48c-1.9,23.67 -78.43,255.54 -91.35,282.51 -3.04,-3.63 0.87,4.22 -5.81,-9.11 -0.66,-1.3 -2.46,-5.54 -3.04,-7.02 -1.39,-3.55 -4.47,-14.59 -5.72,-19.13 -20.41,-74.24 -59.18,-188.91 -73,-250.48l46.14 -13.58zm334.45 -93.76c-70.32,16.46 -48.12,118.49 26.1,102.54 63,-13.54 47.39,-119.75 -26.1,-102.54zm522.17 1c-71.06,18.46 -44.43,123.33 32.97,100.31 54.56,-16.22 42.81,-120 -32.97,-100.31zm-596.25 204.73l39.96 12.97c9,28.14 3.81,181.68 2.65,224.09l-42.45 14.75 -0.52 44.52 177.68 -0.66 -2.09 -46.43 -41.27 -12.35 -0.06 -288.34 -134.05 5.87 0.16 45.59zm566.52 13.89l-2.27 223.73 -40.23 14.2 -0.13 44.71 177.25 -2.46 -1.09 -44.29 -42.24 -11.46 -0.05 -289.55 -134.06 5.26 1.46 46.03 41.36 13.83zm151.4 -51.37c-6.7,14.85 -5.15,30.16 -2.73,49.7l48.37 0.08c1.67,56.67 -7.79,206.32 11.27,246.96 35.63,75.98 126.49,37.05 183.81,17.89l-17.66 -49.48c-97.25,12.1 -86.54,42.17 -85.64,-215.03l87.28 -2.59 -0.05 -58.65 -87.33 -0.63 -0.42 -90.98 -90.99 16.59c0.24,99.97 6.29,67.03 -45.91,86.14zm-504.4 323.91c104.41,38.38 299.96,19.76 267.94,-121.05 -13.01,-57.21 -73.12,-67.6 -130.13,-87.35 -83.07,-28.78 -54.51,-87.98 50.05,-69.09l9.23 39.56 57.14 -2.33 1.59 -81.86c-38.31,-23.72 -141.89,-25.71 -186.65,-8.81 -47.45,17.91 -90.34,73.62 -57.34,139.61 24.95,49.89 81.7,49.96 138.06,75.1 30.48,13.6 45.67,44.06 9.93,64.2 -25.86,14.57 -65.69,8.85 -93.17,3.55l-6.55 -48.59 -56.2 -0.57 -3.89 97.64z"/>
  <g id="_2354198670560">
   <path class="fil3" d="M2603.6 2743.33c-26.94,11.26 -57.91,42.02 -94.47,13.82 -23.19,-17.89 -34.36,-55.7 -35.69,-93.95 -3.55,-102.09 34.7,-133.62 131.54,-119.66l-1.38 199.79zm12.02 46.35l8.75 41.68 114.47 -5.16 0.15 -46.9 -43.52 -11.85 0.01 -440.22c-31.44,-7.81 -98.02,1.6 -136.22,1.29l-0.66 47.28 46.16 13.43 -0.02 86.06c-152.9,-4.93 -236.01,45.97 -225.49,207.75 4.09,62.79 26.09,117.65 77.95,141.3 68.11,31.07 115.22,-9.41 158.41,-34.65z"/>
   <path class="fil3" d="M1960.28 2529.99l43.42 12.88 0.06 224.84 -42.76 12.2 -1.05 46.47 172.77 0.08 -0.53 -45.81 -37.23 -14.49c-0.64,-47.58 0.14,-95.26 -0.24,-142.85 -0.22,-27.07 -6.2,-44.96 13.17,-59.02 46.16,-33.5 110.15,-44.42 109.68,64 -0.19,43.61 2.67,96.51 -0.86,140.33l-37.54 11.26 -0.78 46.52 173.48 0.11 -0.64 -46.35 -43.48 -14.94c0.96,-111.71 37.02,-325.15 -133.13,-287.82 -52.15,11.44 -72.75,38.14 -91.69,46.53l-9.83 -43.13c-26.85,-3.74 -88.35,-0.36 -112.58,4.8l-0.22 44.37z"/>
   <path class="fil4" d="M1798.2 2680.26l1.49 56.71c-11.67,7.51 -95.29,69.84 -107.31,-0.89 -11.14,-65.57 52.59,-57.57 105.81,-55.82zm-116.42 -86.67c2.33,-21.79 -5.14,-66.13 76.64,-51.82 47.41,8.3 41.82,44.68 40.96,90.22 -52,3.08 -111.1,-5.42 -152.92,16.12 -77.49,39.91 -60.05,190.27 53.85,186.33 64.96,-2.25 76.98,-35.66 110.23,-53.87l9.36 51.64 113.72 -6.63 -0.3 -45.06 -42.77 -14.69c0.16,-74.47 16.72,-223.24 -28.23,-263.82 -46.86,-42.31 -179.74,-30.51 -241.96,-2.48l3.5 93.13 57.92 0.93z"/>
  </g>
  <path class="fil3" d="M3840.79 2550.36c24.8,-11.1 60.16,-45.1 100.05,-16.46 24.8,17.81 37.24,57.21 38.66,99.6 1.46,43.83 -5.72,83.81 -29.3,109.01 -29.02,31.01 -63.78,25.64 -109.81,18.49l0.4 -210.64zm-95.94 -24.46l-0.15 393.38 -45.65 14.28 0 49.73 194.67 0.08 -0.51 -49.5 -52.79 -13.41 0.05 -91.65c40.32,3.41 64.4,10.25 106.22,0.97 100.04,-22.2 138.13,-108.46 132.34,-216.18 -3.87,-71.89 -33.39,-127.16 -82.22,-149.72 -79.76,-36.86 -139.77,23.56 -169.27,38.9l-8.21 -44.96 -120.39 5.69 0.37 49.31 45.54 13.08z"/>
  <path class="fil3" d="M3078.77 2617.3c7.32,-4.61 20.32,-2.77 34.04,-2.77l111.61 -0.19 -0.63 -64.83 -110.97 0.03c-9.2,0 -29.44,3.37 -34.87,-3.5l0.95 -130.38 130.51 -0.05 11.71 52.75 57.59 -1.06 0.11 -121.33c-28.43,-5.63 -316,-2.16 -348.83,3.16l-0.26 48.4 50.68 14.93 -0.58 348.62c-11.97,7.42 -32.09,6.54 -44.99,14.71 -9.29,5.89 -4.93,35.18 -4.96,50.41l356.28 0.03 1.13 -128.67 -58.14 0.11 -10.99 57.97 -139.69 0 0.33 -138.36z"/>
  <path class="fil3" d="M4486.41 2524.16c68.54,-19.02 93.35,39.67 96.88,98.05 3.71,61.3 -6.66,127.74 -56.97,141.21 -68.29,18.28 -92.42,-36.96 -95.58,-95.76 -3.23,-60.25 3.27,-128.95 55.67,-143.49zm194.78 146.22c15.09,-121.81 -39.59,-205.6 -147.21,-216.12 -116.72,-11.42 -188.82,56.85 -201.01,160.11 -14.54,123.1 35.77,208.96 146.61,219.5 117.88,11.21 188.65,-58.87 201.61,-163.49z"/>
  <path class="fil3" d="M5267.51 2605.39l-132.76 -0.1c8.48,-41.21 20.04,-79.6 64.06,-82.52 53.26,-3.53 66.16,32.13 68.7,82.62zm94.29 55.51c18.83,-105.91 -22.46,-192.48 -115.2,-205.46 -178.58,-24.99 -238.8,139.91 -203.95,263.46 45.34,160.74 243.13,125.4 318.15,62.02 -2.8,-10.28 -24.57,-44.98 -31.56,-50.59 -34.22,16.63 -80.52,41.81 -129.79,30.3 -41.42,-9.68 -62.42,-49.84 -65.08,-98.33l227.43 -1.39z"/>
  <path class="fil3" d="M3490.26 2506l-1.03 -47.39 -168.66 5.9 0.16 48.77c32.24,7.75 34.27,3.5 44.56,17.95 11.66,16.37 74.31,100.73 77.87,110.81l-84.62 118.28c-10.85,14.82 -27.56,10.76 -46.5,18.38l-0.01 47.45 95.72 -0.2c13.29,-27.05 61.33,-89.94 78.64,-121.49 9.35,5.78 41.59,53.65 48.22,65.13 -28.8,19.83 -29.79,-23.07 -29.87,56.61l181.77 0.07 -1 -48.18c-16.09,-8.11 -38.61,-4.67 -50.29,-18 -9.13,-10.44 -19.93,-27.14 -28.77,-39.25 -9.62,-13.16 -19.2,-25.93 -28.71,-39.21 -7.34,-10.24 -23.42,-29.48 -28.31,-39.59 6.44,-13.57 43.95,-60.43 55.92,-77.13 37.2,-51.91 26.65,-45.99 73.31,-57.57l-0.26 -48.66 -92.25 5.47c-9.96,9.89 -73.57,105.48 -78.22,116.78l-46.64 -66.98 28.98 -7.96z"/>
  <path class="fil3" d="M4112.26 2347.28c9.13,6.24 31.32,10.23 45.34,15.47l0.35 400.95 -45.5 14.39 -0.22 48.23 186.88 -1.33c-0.24,-74.7 4.64,-36.74 -45.83,-62.09l0.07 -468.22 -140.78 4.98 -0.31 47.61z"/>
  <path class="fil3" d="M5014.24 2460.65c-24.63,-12.86 -70.04,-7.57 -93.74,2.19 -25.59,10.53 -49.54,29.54 -63.82,45.64 -3.62,-3.83 -0.93,0.27 -3.63,-5.63l-8.76 -45.06 -120.96 6.5 1.77 47.37c10.33,6.84 29.68,11.19 44.17,14.03l-0.02 238.89c-14.15,3.52 -32.98,6.68 -45.54,13.52l-0.26 48.1 198.27 0.04 -0.53 -49.26 -56.25 -13.56c0.26,-52.72 0.04,-105.5 0.02,-158.23 -0.02,-40.99 -5.59,-39.76 20.46,-58.3 16.69,-11.87 35.39,-21.23 60.44,-17.22l9.24 56.44 54.31 0.18 4.83 -125.65z"/>
  <path class="fil5" d="M3078.77 2617.3l147.07 -1.06c2.23,-16.41 3.93,-54.7 -1.31,-69.65l-146.59 -0.55c5.42,6.87 25.67,3.5 34.87,3.5l110.97 -0.03 0.63 64.83 -111.61 0.19c-13.72,0 -26.72,-1.84 -34.04,2.77z"/>
  <g id="_2354205909232">
   <path class="fil6" d="M1841.88 3309.81l105.17 0c-13.33,-9.13 -59.81,-9.51 -81.07,-6.38 -6.61,0.97 -18.67,2.64 -24.1,6.38z"/>
   <path class="fil4" d="M1202.28 3196.08l-0.71 -80.5c12.21,-2.34 46.47,-1.7 57.61,2.07 15.56,5.28 24.3,18.35 24.06,38.46 -0.51,43.01 -43.2,40.82 -80.96,39.96zm0.03 -198.22c36.29,-2.3 72.27,-2.3 71.35,38.22 -0.82,36.4 -35.85,41.34 -72.06,38.54l0.71 -76.76zm-86.15 -38.43l-0.73 28.89 29.33 8.06 0.02 202.81c-10.7,5.29 -29.28,2.84 -29.28,14.5l0.01 22.94 120.05 0.05c118.13,0 116.26,-86.63 94.7,-116.04 -11.33,-15.46 -28.12,-21.05 -52.5,-26.18l12.07 -5.91c4.46,-1.71 8.27,-3.65 12,-5.93 25.59,-15.61 34.05,-45.4 26.88,-75.61 -12.15,-51.22 -72.02,-50.34 -119.47,-49.76l-93.07 2.17z"/>
   <path class="fil3" d="M1899.63 3244.52c6.88,-4.06 69.31,-2.61 79.58,0.11 26.24,6.97 25.23,35.7 0.91,44.13 -16,5.55 -93.92,13.62 -95.72,-17.46 -0.7,-12.04 8.57,-22.87 15.22,-26.79zm29.58 -186.35c20.29,-3.71 43.22,2.86 46.48,29.02 7.94,63.71 -69.89,64.23 -76.07,19.62 -3.84,-27.77 5.73,-44.28 29.59,-48.64zm-66.91 -13.11c-3.86,9.05 -11.19,14.22 -15.47,28.25 -10.41,34.17 -0.57,69.39 31.62,87.91 -4.67,11.53 -13.87,23.03 -19.87,35.63 -11.4,23.93 2.6,26.28 11.81,36.64 -16.74,9.07 -33.38,19.61 -34.48,44.35 -1.14,25.58 14.31,39 33.09,45.76 41.53,14.94 157.62,20.12 179.34,-40.46 7.99,-22.29 0.44,-49.71 -11.72,-61.35 -28.91,-27.67 -89.41,-18.93 -136.73,-19.96l4.88 -30.67c99.18,19.27 148.3,-48.96 118.48,-108.81l4.59 -2.14c1.87,-0.66 3.41,-0.87 5.24,-1.31l13.56 -3.13 -0.08 -29.41c-97.81,4.7 -46.28,-2.86 -100.56,-6.07 -58.19,-3.44 -76,22.53 -83.72,24.74z"/>
   <path class="fil3" d="M2088.17 3081.5l-0.16 119.13 -25.21 7.2c-2.64,7.79 -1.02,19.63 -1.15,28.48l107.56 0.34 -3.15 -28.93c-28.76,-15.27 -22.59,15.75 -22.59,-68.55l31.25 -0.02 48.98 97.28 30.96 0.41 33.52 -0.2 -0 -28.44c-5.14,-1.09 -10.46,-2.55 -15.31,-3.83 -14.89,-3.93 -11.84,-7.65 -26.22,-34.7 -8.84,-16.63 -19.65,-35.67 -28.08,-53.04l37.39 -56.91c5.72,-7.01 15.57,-4.22 23.96,-8.89l0.27 -27.53 -96.78 3.23 0.03 27.65 19.33 4.5c-1.12,5.82 -21.5,36.01 -26.41,42.51l-32.89 0.84 -0.02 -174.05 -81.37 3.31 -0.43 28.56c4.43,0.93 21.87,5.74 26.24,8.72l0.26 112.89z"/>
   <path class="fil3" d="M1587.83 3207.01l-1.24 29.67 105.97 0.01 -0.02 -26.29c-3.16,-6.22 -18.36,-6.88 -23.8,-10.27l-0.31 -111.5c1.12,-8.81 -1,-3.46 2.39,-5.93 3.04,-7.72 22.52,-17.44 34.33,-19.66 16.86,-3.16 32.23,3.9 35.5,16.84l2.06 4.76c2.86,9.55 1.82,42.77 1.82,53.39 0,21.15 0.25,42.46 -0.09,63.59l-22.91 6.11 -0.88 28.98 105.95 -0.01 -0.04 -27.95 -26.54 -8.55c0.14,-40.36 3.71,-105.85 -3.66,-142.2 -9.13,-14.23 -7.19,-17.94 -22.17,-27.56 -32.91,-21.13 -75.14,-6.82 -103.42,14.78 -3.08,2.35 -4.39,3.97 -7.57,6.24l-1.29 -2.52c-0.55,-1.39 -0.98,-2.43 -1.38,-3.9l-3.96 -22.06 -70.04 3.29c0.58,40.56 -4.56,23.94 26.75,36.75l-0.09 136.67 -25.35 7.31z"/>
   <path class="fil3" d="M2418.03 3181.38c-9.24,6.31 -18.41,15.52 -33.13,18.89 -17.43,4 -29.65,-3.8 -32.48,-18.02 -8.44,-42.42 33.61,-35.48 65.7,-35.85l-0.09 34.98zm-68.44 -115.08c70.87,-19.07 68.14,13.26 68.61,50.72 -31.49,1.2 -65.56,-2.9 -92.45,9.25 -49.5,22.37 -39.83,116.56 29.92,115.28 30.76,-0.56 55.25,-19.02 68.42,-34.08l6.7 32.49 69.38 -3.62 0.02 -28c-3.69,-1.6 -9.57,-3.28 -14.39,-4.65 -4.04,-1.15 -11.09,-2.24 -12.15,-6.45 0.02,-30.15 0,-60.31 0,-90.46 0,-33.66 1.43,-51.94 -19.45,-70.55 -16.35,-14.58 -45.35,-17.44 -72.31,-15.32 -17.48,1.37 -60.91,8.38 -74.35,15.17l2.93 57.37 34.8 -0.17 4.35 -26.98z"/>
   <path class="fil3" d="M1488.4 3146.65l0.09 34.16c-63.44,57.37 -86.27,-21.39 -49.72,-31.93 12,-3.46 36.26,-2.87 49.63,-2.24zm-110.54 -111.45l3.08 57.83 34.82 0.48 4.2 -27.63c16.95,-3.07 38.53,-9.09 54.37,-0.55 16.57,8.93 14.19,30.22 14.2,51.42 -33.73,3.22 -60.54,-4.08 -92.08,9.54 -62.2,26.85 -27.76,152.88 67.45,105.18 15.42,-7.72 19.2,-15.11 29.87,-23.08 0.8,1.3 0.49,0.17 1.68,3.7 2.6,7.76 3.05,21.57 6.55,27.56l68.49 -3.35 -0.05 -27.58c-4.51,-2.43 -8.81,-3.5 -14.04,-5.04 -11.46,-3.38 -11.29,-2.29 -12.4,-6.43 0.02,-29.61 0,-59.21 0,-88.82 0,-28.68 -0.56,-57.81 -18.05,-71.64 -40.64,-32.13 -107.8,-9.08 -148.09,-1.58z"/>
   <path class="fil7" d="M1670.83 3082.69l0.63 46.59c14.66,-13.13 32.81,-26.04 51.49,-36.74 10.11,-5.79 15.02,-6.08 17.7,-12.67 -3.26,-12.94 -18.64,-20 -35.5,-16.84 -11.81,2.21 -31.29,11.94 -34.33,19.66z"/>
  </g>
  <g id="_2354205915248">
   <path class="fil4" d="M2750.44 3195.73l-0.72 -80.55c12.24,-2.04 46.28,-1.69 57.65,2.26 15.89,5.52 24.4,16.83 24.03,38.34 -0.74,42.74 -43.03,40.92 -80.96,39.95zm-0.25 -121.48l-0.44 -76.11c12.16,-2.38 40.16,-1.29 50.89,2.46 14.08,4.93 21.61,16.35 21.18,35.13 -0.8,35.83 -35.93,41.94 -71.63,38.52zm-85.98 -115.32l-0.59 29.06 29.32 8.01 0 203.57 -29.11 8.24 -0.19 28.52c35.66,-0.02 71.29,-0.01 106.92,-0 34.67,0 64.58,-1.59 89.67,-18.89 32.5,-22.41 43.88,-80.84 5.54,-109.26 -14.88,-11.03 -26.82,-8.48 -39.63,-14.92 4.09,-2.72 12.54,-5.05 17.54,-7.53 16.55,-8.22 29.43,-21.87 33.67,-42.13 7.15,-34.16 -5.7,-59.72 -25.98,-72.23 -38.02,-23.43 -136.15,-12.37 -187.17,-12.45z"/>
   <path class="fil3" d="M4099.19 3243.96c6.11,-3.5 72.18,-1.91 80.96,0.69 24.35,7.19 24.25,36.02 -1.75,44.25 -18.46,5.85 -55.96,6.47 -74.77,1.02 -35.24,-10.22 -14.87,-39.98 -4.44,-45.95zm30.7 -186.44c26.68,-4.11 43.56,7.9 45.57,32.39 2.11,25.68 -8.25,43.52 -31.47,46.27 -27.5,3.25 -43.07,-8.34 -45.21,-33.59 -2.22,-26.12 7.81,-41.48 31.11,-45.07zm116.41 -1.33l-0.2 -30.22c-16.11,0.86 -31.74,1.21 -47.85,1.87 -15.84,0.65 -26,-5.17 -41.17,-6.89 -130.44,-14.76 -139.29,108.17 -78.87,139.86 -5.41,12.29 -13.57,22.44 -19.94,35.86 -11.36,23.89 2.11,26 11.69,36.39 -16.32,7.93 -33.41,20.85 -34.49,44.45 -3.41,74.04 140.44,56.43 172.07,43.9 56.28,-22.29 49.15,-80.1 28.69,-99.98 -28.2,-27.39 -90.66,-19.28 -136.67,-19.87l4.16 -30.48c43.54,5.11 73.57,4.32 102.43,-18.94 18.39,-14.82 27.66,-41.94 24.17,-67.73 -1.63,-12.05 -5.02,-15.03 -7.64,-23.78l23.64 -4.44z"/>
   <path class="fil3" d="M3786.59 3054.45l26.19 8.22 0.14 137.35 -26.61 7.99 -0.31 28.27 106.13 -0.02 -0.24 -28.25 -23.65 -8.07 -0.07 -111.69c0.72,-13.66 25.39,-23.85 37.89,-25.83 38.65,-6.12 38.03,29.73 38.04,50.59 0.01,29.45 0,58.91 -0.06,88.13l-23.67 7.27 -0.05 27.93 105.81 0.01 -0.03 -28.72 -26.57 -7.8c0.05,-29.49 0.02,-58.98 0.02,-88.48 0,-28.08 1.12,-55.68 -15.12,-72.39 -36.94,-38 -92.76,-12.96 -121.85,12.77 -4.55,-7.04 -4.9,-20.12 -6.44,-29.22l-70 4.07 0.44 27.85z"/>
   <path class="fil3" d="M3554.77 3062.32c0.37,28.89 0.06,57.97 0.06,86.88 0,29.85 -1.2,52.89 15.27,72.23 12.23,14.36 37.95,23.45 65.11,17.7 10.82,-2.29 21.66,-6.71 31.04,-11.69 10.39,-5.52 17.35,-12.18 25.42,-17.33 4.37,6.77 4.41,20.03 7.04,29.06l69.56 -3.64 -0.35 -27.84 -26.29 -8.22 0 -176.46 -81.87 2.79 0.31 28.51 26.06 8.43 -0.3 116.07c-3.27,7.84 -74.94,52.41 -75.55,-21.38 -0.35,-42.59 2.63,-92.35 -0.23,-134.36l-81.58 2.77 0.33 28.63 25.96 7.85z"/>
   <path class="fil3" d="M2974.23 3108.26c2.14,-25.55 13.87,-46.89 38.07,-48.04 30.09,-1.42 37.71,19.79 38.69,47.98l-76.76 0.05zm131.76 32.69c4.87,-53.17 -2.54,-111.04 -67.55,-119.83 -137.08,-18.53 -154.87,160.04 -78.52,206.78 44.03,26.94 112.73,8.4 145.23,-17.84 -2.57,-8.88 -12.51,-20.85 -16.93,-29.48 -10.44,3.07 -21.42,10.83 -34.7,14.8 -43.76,13.06 -78.85,-3.74 -79.43,-54.19l131.9 -0.23z"/>
   <path class="fil3" d="M3401.07 2978.33l0.13 45.86 -30.35 7.59 -0.07 29.81 30.35 -0.1c1.32,37.09 -5.19,123.11 6.94,151.02 8.24,18.97 24.58,28.93 50.02,28.69 26.7,-0.26 42.76,-9.43 62.54,-17.85l-9.68 -30.51c-29.37,6.69 -53.49,22.94 -53.35,-32.14 0.08,-32.93 -0.56,-66.27 0.11,-99.13l52.64 -0.08 1.42 -37.22 -54.05 0.07 -0.14 -55.48 -56.52 9.47z"/>
   <polygon class="fil3" points="3127.81,2930.94 3127.19,2959.98 3153.48,2967.09 3153.5,3200.09 3127.42,3207.81 3127.17,3236.35 3235.68,3236.3 3235.39,3207.7 3209.05,3200.25 3208.96,2928.2 "/>
   <path class="fil3" d="M3253.74 3054.36l26.1 8.02 0.13 137.66 -26.57 7.9 -0.35 28.36 108.89 -0.66 -0.02 -26.74c-6.22,-4.45 -18.48,-5.56 -26.57,-9.3l0 -176.66 -82.18 3.71 0.57 27.69z"/>
   <path class="fil4" d="M3298.11 2927.93c-39.59,8.59 -31.46,72.68 16.68,63.22 17.28,-3.39 27.25,-19.34 22.9,-40.69 -3.44,-16.93 -19.06,-26.99 -39.58,-22.54z"/>
  </g>
 </g>
</svg>
