<?xml version="1.0" encoding="UTF-8"?>
<!DOCTYPE svg PUBLIC "-//W3C//DTD SVG 1.1//EN" "http://www.w3.org/Graphics/SVG/1.1/DTD/svg11.dtd">
<!-- Creator: CorelDRAW 2018 (64-Bit) -->
<svg xmlns="http://www.w3.org/2000/svg" xml:space="preserve" width="3.33333in" height="3.33333in" version="1.1" style="shape-rendering:geometricPrecision; text-rendering:geometricPrecision; image-rendering:optimizeQuality; fill-rule:evenodd; clip-rule:evenodd"
viewBox="0 0 3333.33 3333.33"
 xmlns:xlink="http://www.w3.org/1999/xlink">
 <defs>
  <style type="text/css">
   <![CDATA[
    .fil0 {fill:#1CA1F2}
   ]]>
  </style>
 </defs>
 <g id="Layer_x0020_1">
  <metadata id="CorelCorpID_0Corel-Layer"/>
  <path class="fil0" d="M1622.22 955.56c0,81.43 -3.83,112.55 14.81,192.6 -194.98,0 -457.08,-74.39 -643.31,-149.28 -256.51,-103.17 -443.76,-237.79 -636.32,-430.35 -43.61,-43.61 -108.66,-124.4 -135.18,-131.48 -5.98,25.65 -19.78,46.6 -30.72,72.99 -122.54,295.93 -30.72,633.35 197.89,804.28 8.71,6.52 9.11,6.61 16.8,12.83 6.14,4.97 11.35,9.52 16.03,13.59 -63.04,0 -108.79,-10.07 -158.48,-26.7 -53.09,-17.77 -109.26,-46.74 -137.81,-47.37 0,30.61 9.22,104.66 15.24,132.91 56.59,265.33 247.59,479.88 510.69,541.17 -53.03,33.65 -233.83,14.81 -281.48,14.81 7.09,30.46 24.48,69.22 37.03,96.3 93.6,201.82 334.26,377.77 585.19,377.77 -15.87,43.83 -204.86,139.52 -246.83,160.59 -155.06,77.89 -386,128.3 -590.21,128.3 -62.72,0 -94.26,-7.4 -155.56,-7.4 45.01,61.44 346.99,183.56 432.43,212.02 289.46,96.44 652.18,130.3 964.46,73.75 317.58,-57.51 644.42,-186.33 882.69,-398.79l80.26 -67.89c73.34,-56.72 249.79,-278.79 296.15,-348.3 11.71,-17.57 16.7,-27.57 28.51,-45.56 46.17,-70.33 116.27,-204.37 148.32,-281.31 138.55,-332.7 123.3,-385.04 165.17,-694.09 13.46,-99.41 -19.96,-155.91 21.92,-192.9 13.53,-11.96 26.3,-20 41.7,-32.38 71.22,-57.25 121.06,-110.98 177.65,-177.89 27.11,-32.04 83.77,-89.53 94.08,-128.15l-370.37 103.7c111.82,-97.19 177.41,-127.32 259.26,-311.11 8.55,-19.21 13.32,-40.71 22.22,-59.26 -32.13,2.68 -298.08,155.56 -429.63,155.56 -18.55,0 -33.08,-22.24 -47.59,-33.89 -18.59,-14.93 -26.54,-21.7 -45.44,-36.04 -202.07,-153.32 -499.63,-186.65 -719.43,-68.48 -51.37,27.62 -144.22,90.81 -185.97,132.56 -102.82,102.78 -194.16,290.11 -194.16,442.88z"/>
 </g>
</svg>
